<svg xmlns="http://www.w3.org/2000/svg" width="1540" height="680" viewBox="0 0 1540 680">
<rect width="100%" height="100%" fill="#ffffff"/>
<g font-family="DejaVu Sans, Arial, sans-serif">
<text x="34.0" y="48.0" font-size="24" font-weight="bold" fill="#111827" text-anchor="start">Private website task: independent transfer</text>
<text x="34.0" y="76.0" font-size="14" font-weight="normal" fill="#4B5563" text-anchor="start">Completion and strict success are reported separately</text>
<text x="34.0" y="182.0" font-size="13" font-weight="normal" fill="#111827" text-anchor="start">Codex / Sol high</text>
<text x="34.0" y="272.0" font-size="13" font-weight="normal" fill="#111827" text-anchor="start">Codex + Skill / Sol high</text>
<text x="34.0" y="362.0" font-size="13" font-weight="bold" fill="#111827" text-anchor="start">Workflow / frozen transfer</text>
<text x="34.0" y="452.0" font-size="13" font-weight="normal" fill="#111827" text-anchor="start">Workflow / after inspection</text>
<text x="250.0" y="116.0" font-size="14" font-weight="bold" fill="#111827" text-anchor="start">Known model cost (USD, log)</text>
<text x="550.0" y="116.0" font-size="14" font-weight="bold" fill="#111827" text-anchor="start">Executor time (minutes)</text>
<text x="850.0" y="116.0" font-size="14" font-weight="bold" fill="#111827" text-anchor="start">Completion score / 100</text>
<text x="1150.0" y="116.0" font-size="14" font-weight="bold" fill="#111827" text-anchor="start">Strict success rate</text>
<line x1="250.0" y1="135" x2="250.0" y2="475" stroke="#E5E7EB" stroke-width="1"/>
<text x="250.0" y="500.0" font-size="10" font-weight="normal" fill="#6B7280" text-anchor="middle">$0.001</text>
<line x1="305.5" y1="135" x2="305.5" y2="475" stroke="#E5E7EB" stroke-width="1"/>
<text x="305.5" y="500.0" font-size="10" font-weight="normal" fill="#6B7280" text-anchor="middle">$0.01</text>
<line x1="361.0" y1="135" x2="361.0" y2="475" stroke="#E5E7EB" stroke-width="1"/>
<text x="361.0" y="500.0" font-size="10" font-weight="normal" fill="#6B7280" text-anchor="middle">$0.1</text>
<line x1="416.5" y1="135" x2="416.5" y2="475" stroke="#E5E7EB" stroke-width="1"/>
<text x="416.5" y="500.0" font-size="10" font-weight="normal" fill="#6B7280" text-anchor="middle">$1</text>
<line x1="472.0" y1="135" x2="472.0" y2="475" stroke="#E5E7EB" stroke-width="1"/>
<text x="472.0" y="500.0" font-size="10" font-weight="normal" fill="#6B7280" text-anchor="middle">$10</text>
<line x1="550.0" y1="135" x2="550.0" y2="475" stroke="#E5E7EB" stroke-width="1"/>
<text x="550.0" y="500.0" font-size="10" font-weight="normal" fill="#6B7280" text-anchor="middle">0.0</text>
<line x1="661.0" y1="135" x2="661.0" y2="475" stroke="#E5E7EB" stroke-width="1"/>
<text x="661.0" y="500.0" font-size="10" font-weight="normal" fill="#6B7280" text-anchor="middle">7.6</text>
<line x1="772.0" y1="135" x2="772.0" y2="475" stroke="#E5E7EB" stroke-width="1"/>
<text x="772.0" y="500.0" font-size="10" font-weight="normal" fill="#6B7280" text-anchor="middle">15.1</text>
<line x1="850.0" y1="135" x2="850.0" y2="475" stroke="#E5E7EB" stroke-width="1"/>
<text x="850.0" y="500.0" font-size="10" font-weight="normal" fill="#6B7280" text-anchor="middle">0%</text>
<line x1="961.0" y1="135" x2="961.0" y2="475" stroke="#E5E7EB" stroke-width="1"/>
<text x="961.0" y="500.0" font-size="10" font-weight="normal" fill="#6B7280" text-anchor="middle">50%</text>
<line x1="1072.0" y1="135" x2="1072.0" y2="475" stroke="#E5E7EB" stroke-width="1"/>
<text x="1072.0" y="500.0" font-size="10" font-weight="normal" fill="#6B7280" text-anchor="middle">100%</text>
<line x1="1150.0" y1="135" x2="1150.0" y2="475" stroke="#E5E7EB" stroke-width="1"/>
<text x="1150.0" y="500.0" font-size="10" font-weight="normal" fill="#6B7280" text-anchor="middle">0%</text>
<line x1="1261.0" y1="135" x2="1261.0" y2="475" stroke="#E5E7EB" stroke-width="1"/>
<text x="1261.0" y="500.0" font-size="10" font-weight="normal" fill="#6B7280" text-anchor="middle">50%</text>
<line x1="1372.0" y1="135" x2="1372.0" y2="475" stroke="#E5E7EB" stroke-width="1"/>
<text x="1372.0" y="500.0" font-size="10" font-weight="normal" fill="#6B7280" text-anchor="middle">100%</text>
<rect x="250.0" y="157.0" width="202.9" height="36" rx="3" fill="#3978B5"/>
<text x="460.9" y="180.0" font-size="12" font-weight="normal" fill="#111827" text-anchor="start">$4.5361</text>
<rect x="550.0" y="157.0" width="193.0" height="36" rx="3" fill="#3978B5"/>
<text x="751.0" y="180.0" font-size="12" font-weight="normal" fill="#111827" text-anchor="start">13.14</text>
<rect x="850.0" y="157.0" width="206.0" height="36" rx="3" fill="#3978B5"/>
<text x="1064.0" y="180.0" font-size="12" font-weight="normal" fill="#111827" text-anchor="start">92.8</text>
<rect x="1150.0" y="157.0" width="2.0" height="36" rx="3" fill="#C56A3D"/>
<text x="1158.0" y="180.0" font-size="12" font-weight="normal" fill="#111827" text-anchor="start">0/1</text>
<rect x="250.0" y="247.0" width="197.1" height="36" rx="3" fill="#7862A6"/>
<text x="455.1" y="270.0" font-size="12" font-weight="normal" fill="#111827" text-anchor="start">$3.5562</text>
<rect x="550.0" y="247.0" width="186.8" height="36" rx="3" fill="#7862A6"/>
<text x="744.8" y="270.0" font-size="12" font-weight="normal" fill="#111827" text-anchor="start">12.72</text>
<rect x="850.0" y="247.0" width="214.0" height="36" rx="3" fill="#7862A6"/>
<text x="1072.0" y="270.0" font-size="12" font-weight="normal" fill="#111827" text-anchor="start">96.4</text>
<rect x="1150.0" y="247.0" width="2.0" height="36" rx="3" fill="#C56A3D"/>
<text x="1158.0" y="270.0" font-size="12" font-weight="normal" fill="#111827" text-anchor="start">0/1</text>
<rect x="250.0" y="337.0" width="42.9" height="36" rx="3" fill="#C56A3D"/>
<text x="300.9" y="360.0" font-size="12" font-weight="normal" fill="#111827" text-anchor="start">$0.0059</text>
<rect x="550.0" y="337.0" width="5.9" height="36" rx="3" fill="#C56A3D"/>
<text x="563.9" y="360.0" font-size="12" font-weight="normal" fill="#111827" text-anchor="start">0.41</text>
<rect x="850.0" y="337.0" width="2.0" height="36" rx="3" fill="#C56A3D"/>
<text x="858.0" y="360.0" font-size="12" font-weight="normal" fill="#111827" text-anchor="start">0.0</text>
<rect x="1150.0" y="337.0" width="2.0" height="36" rx="3" fill="#C56A3D"/>
<text x="1158.0" y="360.0" font-size="12" font-weight="normal" fill="#111827" text-anchor="start">0/1</text>
<rect x="250.0" y="427.0" width="128.8" height="36" rx="3" fill="#188977"/>
<text x="386.8" y="450.0" font-size="12" font-weight="normal" fill="#111827" text-anchor="start">$0.2095</text>
<rect x="550.0" y="427.0" width="121.3" height="36" rx="3" fill="#188977"/>
<text x="679.3" y="450.0" font-size="12" font-weight="normal" fill="#111827" text-anchor="start">8.26</text>
<rect x="850.0" y="427.0" width="198.0" height="36" rx="3" fill="#188977"/>
<text x="1056.0" y="450.0" font-size="12" font-weight="normal" fill="#111827" text-anchor="start">89.2</text>
<rect x="1150.0" y="427.0" width="2.0" height="36" rx="3" fill="#C56A3D"/>
<text x="1158.0" y="450.0" font-size="12" font-weight="normal" fill="#111827" text-anchor="start">0/1</text>
<text x="34.0" y="535.0" font-size="13" font-weight="normal" fill="#4B5563" text-anchor="start">One run per path. The repaired row follows inspection of this case and is not a held-out result.</text>
<text x="34.0" y="562.0" font-size="13" font-weight="normal" fill="#4B5563" text-anchor="start">Completion measures recovered coverage; strict success applies the full gate. Frozen-transfer failure is retained.</text>
<text x="34.0" y="589.0" font-size="13" font-weight="normal" fill="#4B5563" text-anchor="start">≥ marks a known cost lower bound. Search-tool fees, setup and repair, local compute, and human review are excluded.</text>
<text x="1506.0" y="644.0" font-size="12" font-weight="normal" fill="#6B7280" text-anchor="end">Workflow stack: Jev typesafe/jev-1.13 + DeepSeek-V4.1-Flash (deepseek-flash alias)</text>
</g>
</svg>
